<svg width="320" height="194" viewBox="0 0 320 194" fill="none" xmlns="http://www.w3.org/2000/svg">
<path d="M184.248 72.9382C190.091 72.9382 194.827 68.192 194.827 62.3373C194.827 56.4825 190.091 51.7363 184.248 51.7363C178.406 51.7363 173.67 56.4825 173.67 62.3373C173.67 68.192 178.406 72.9382 184.248 72.9382Z" fill="#2F2E41"/>
<path d="M187.195 52.0282C189.026 52.0285 190.825 52.5048 192.417 53.4106C194.009 54.3164 195.34 55.6207 196.278 57.196C197.217 58.7712 197.731 60.5636 197.771 62.3978C197.811 64.232 197.376 66.0452 196.508 67.6603C197.425 66.5104 198.093 65.1816 198.469 63.7587C198.845 62.3357 198.922 60.8498 198.693 59.3956C198.465 57.9414 197.937 56.5509 197.143 55.3126C196.348 54.0742 195.305 53.0153 194.08 52.2033C192.855 51.3912 191.474 50.8438 190.026 50.5961C188.579 50.3483 187.095 50.4055 185.67 50.764C184.246 51.1226 182.911 51.7747 181.752 52.6787C180.592 53.5827 179.634 54.7188 178.937 56.0146C179.926 54.7705 181.182 53.766 182.612 53.0758C184.042 52.3856 185.608 52.0275 187.195 52.0282Z" fill="#2F2E41"/>
<path d="M164.481 62.3148C181.643 62.3148 195.555 48.3728 195.555 31.1745C195.555 13.9762 181.643 0.0341797 164.481 0.0341797C147.32 0.0341797 133.408 13.9762 133.408 31.1745C133.408 48.3728 147.32 62.3148 164.481 62.3148Z" fill="#2F2E41"/>
<path d="M140.094 11.8534C145.448 5.81895 152.932 2.10521 160.967 1.49601C169.002 0.886815 176.958 3.42983 183.158 8.58834C182.904 8.34627 182.652 8.10225 182.388 7.86703C176.229 2.38201 168.147 -0.426635 159.922 0.058781C151.696 0.544197 143.999 4.28393 138.525 10.4555C133.05 16.6271 130.245 24.7251 130.728 32.9686C131.21 41.2121 134.94 48.9261 141.097 54.4139C141.361 54.6492 141.633 54.8708 141.902 55.0953C136.064 49.5298 132.612 41.9088 132.275 33.8408C131.937 25.7729 134.741 17.8891 140.094 11.8534Z" fill="#2F2E41"/>
<path d="M164.218 62.0509C175.271 62.0509 184.232 53.0713 184.232 41.9945C184.232 30.9176 175.271 21.938 164.218 21.938C153.165 21.938 144.205 30.9176 144.205 41.9945C144.205 53.0713 153.165 62.0509 164.218 62.0509Z" fill="#FFB8B8"/>
<path d="M149.998 48.3281C149.998 48.3281 152.631 72.607 148.418 75.246C144.205 77.885 172.645 81.5796 172.645 81.5796C172.645 81.5796 168.431 55.1895 178.965 48.3281H149.998Z" fill="#FFB8B8"/>
<path d="M175.278 71.0236C175.278 71.0236 183.12 67.3535 171.826 68.6608C160.531 69.968 150.787 64.9539 150.787 64.9539C150.787 64.9539 147.365 61.5232 146.838 65.2178C146.311 68.9124 148.418 75.7738 136.831 76.8294C125.244 77.885 114.711 74.7182 110.498 82.6352C106.284 90.5522 108.391 124.859 108.391 124.859C108.391 124.859 116.291 153.361 122.611 157.583C128.931 161.805 184.232 156 184.232 156L200.032 127.498V94.2469C200.032 94.2469 197.925 82.6352 183.178 85.802C183.178 85.802 173.698 83.6908 174.225 78.9406C174.751 74.1904 175.278 71.0236 175.278 71.0236Z" fill="#D0CDE1"/>
<path d="M124.701 177.753C125.027 176.331 125.245 175.527 125.245 175.527L125.076 174.371L123.341 162.563L122.611 157.582C128.93 154.943 130.511 142.803 130.511 142.803L130.75 142.661L131.828 142.014V142.011L135.699 139.684L135.778 139.637L137.341 140.68L140.518 142.803C151.632 150.994 162.95 150.848 169.934 149.558C174.204 148.768 176.857 147.554 176.857 147.554L184.519 144.994L184.757 144.915L184.993 144.95L189.486 145.632L189.567 145.646L189.939 145.701L188.899 152.91L187.39 163.387C191.375 165.502 194.918 169.475 198.016 174.371C198.702 175.455 199.367 176.582 200.01 177.753C200.847 179.267 201.647 180.843 202.408 182.457C202.501 182.649 202.591 182.844 202.681 183.039C202.975 183.671 203.265 184.309 203.547 184.95H123.306C123.411 184.306 123.515 183.692 123.617 183.1C123.622 183.08 123.626 183.06 123.629 183.039C123.667 182.841 123.701 182.649 123.733 182.457C124.088 180.534 124.431 178.929 124.701 177.753Z" fill="#2F2E41"/>
<path d="M121.558 76.302C121.558 76.302 127.351 86.858 125.244 100.053C123.138 113.248 131.564 145.972 131.564 145.972L137.884 144.388C137.884 144.388 133.671 116.943 134.724 110.609C135.778 104.275 135.778 79.4688 130.511 76.302C125.244 73.1352 121.558 76.302 121.558 76.302Z" fill="#2F2E41"/>
<path d="M182.808 87.2716L185.022 145.708L189.235 148.347C189.235 148.347 195.292 84.2188 192.132 84.2188H185.702C185.309 84.2188 184.92 84.2989 184.559 84.4543C184.197 84.6096 183.872 84.837 183.601 85.1226C183.33 85.4082 183.12 85.7459 182.984 86.1154C182.848 86.4848 182.788 86.8782 182.808 87.2716Z" fill="#2F2E41"/>
<path d="M134.461 144.652C135.915 144.652 137.094 143.471 137.094 142.013C137.094 140.556 135.915 139.374 134.461 139.374C133.007 139.374 131.828 140.556 131.828 142.013C131.828 143.471 133.007 144.652 134.461 144.652Z" fill="#A4D0EB"/>
<path d="M187.128 147.291C188.583 147.291 189.762 146.11 189.762 144.652C189.762 143.195 188.583 142.013 187.128 142.013C185.674 142.013 184.495 143.195 184.495 144.652C184.495 146.11 185.674 147.291 187.128 147.291Z" fill="#A4D0EB"/>
<path d="M147.101 16.9238V36.9803H151.736L157.635 30.6467L156.845 36.9803H177.332L176.068 30.6467L178.596 36.9803H181.861V16.9238H147.101Z" fill="#2F2E41"/>
<path d="M143.941 40.6754C144.814 40.6754 145.521 39.3758 145.521 37.7725C145.521 36.1693 144.814 34.8696 143.941 34.8696C143.069 34.8696 142.361 36.1693 142.361 37.7725C142.361 39.3758 143.069 40.6754 143.941 40.6754Z" fill="#FFB8B8"/>
<path d="M184.495 40.6754C185.367 40.6754 186.075 39.3758 186.075 37.7725C186.075 36.1693 185.367 34.8696 184.495 34.8696C183.622 34.8696 182.915 36.1693 182.915 37.7725C182.915 39.3758 183.622 40.6754 184.495 40.6754Z" fill="#FFB8B8"/>
<path d="M195.292 144.388C195.292 144.388 171.328 139.902 169.748 147.819C168.168 155.736 196.345 152.305 196.345 152.305L195.292 144.388Z" fill="#FFB8B8"/>
<path d="M194.765 90.0244C194.765 90.0244 252.172 135.943 241.639 147.027C231.105 158.111 191.078 154.944 191.078 154.944L193.712 141.749L216.885 139.11L205.298 127.498L194.765 128.554V90.0244Z" fill="#D0CDE1"/>
<path d="M109.971 166.556L117.344 172.362C117.344 172.362 122.611 188.723 130.511 183.973C138.411 179.223 123.138 162.333 123.138 162.333L114.184 159.167L109.971 166.556Z" fill="#FFB8B8"/>
<path d="M117.344 81.5796L109.991 83.7973C109.991 83.7973 58.8839 121.693 56.7772 132.249C54.6706 142.805 66.784 148.61 66.784 148.61L112.604 170.25L117.344 157.583L95.7509 146.499C95.7509 146.499 97.3309 143.332 91.0108 142.805C84.6908 142.277 83.6374 135.415 83.6374 135.415C83.6374 135.415 96.2775 115.887 103.124 120.109C109.971 124.332 112.078 127.498 112.078 127.498L117.344 81.5796Z" fill="#D0CDE1"/>
<path d="M222.227 179.562V181.33C222.228 181.815 222.138 182.296 221.963 182.748C221.885 182.95 221.79 183.145 221.681 183.331C221.334 183.913 220.843 184.396 220.254 184.731C219.666 185.066 219 185.242 218.324 185.241H88.5362C87.8594 185.242 87.1942 185.066 86.6057 184.731C86.0172 184.396 85.5257 183.913 85.1793 183.331C85.0697 183.145 84.9754 182.95 84.8974 182.748C84.7216 182.296 84.6319 181.815 84.6329 181.33V179.562C84.6327 179.048 84.7336 178.539 84.9297 178.065C85.1258 177.59 85.4133 177.159 85.7758 176.795C86.1383 176.432 86.5687 176.144 87.0423 175.947C87.516 175.751 88.0236 175.65 88.5362 175.65H96.0174V174.826C96.0174 174.804 96.0216 174.783 96.0297 174.763C96.0379 174.743 96.0499 174.725 96.065 174.71C96.0801 174.695 96.0981 174.683 96.1179 174.675C96.1376 174.667 96.1588 174.663 96.1802 174.663H100.084C100.105 174.663 100.126 174.667 100.146 174.675C100.166 174.683 100.184 174.695 100.199 174.71C100.214 174.725 100.226 174.743 100.234 174.763C100.242 174.783 100.246 174.804 100.246 174.826V175.65H102.685V174.826C102.685 174.804 102.689 174.783 102.697 174.763C102.705 174.743 102.717 174.725 102.732 174.71C102.748 174.695 102.765 174.683 102.785 174.675C102.805 174.667 102.826 174.663 102.848 174.663H106.751C106.772 174.663 106.794 174.667 106.813 174.675C106.833 174.683 106.851 174.695 106.866 174.71C106.881 174.725 106.893 174.743 106.901 174.763C106.91 174.783 106.914 174.804 106.914 174.826V175.65H109.355V174.826C109.355 174.804 109.359 174.783 109.367 174.763C109.376 174.743 109.388 174.725 109.403 174.71C109.418 174.695 109.436 174.683 109.456 174.675C109.475 174.667 109.496 174.663 109.518 174.663H113.421C113.443 174.663 113.464 174.667 113.484 174.675C113.503 174.683 113.521 174.695 113.536 174.71C113.552 174.725 113.564 174.743 113.572 174.763C113.58 174.783 113.584 174.804 113.584 174.826V175.65H116.023V174.826C116.022 174.804 116.027 174.783 116.035 174.763C116.043 174.743 116.055 174.725 116.07 174.71C116.085 174.695 116.103 174.683 116.123 174.675C116.143 174.667 116.164 174.663 116.185 174.663H120.089C120.11 174.663 120.131 174.667 120.151 174.675C120.171 174.683 120.189 174.695 120.204 174.71C120.219 174.725 120.231 174.743 120.239 174.763C120.247 174.783 120.251 174.804 120.251 174.826V175.65H122.69V174.826C122.69 174.804 122.694 174.783 122.702 174.763C122.71 174.743 122.722 174.725 122.737 174.71C122.753 174.695 122.771 174.683 122.79 174.675C122.81 174.667 122.831 174.663 122.853 174.663H126.756C126.777 174.663 126.799 174.667 126.818 174.675C126.838 174.683 126.856 174.695 126.871 174.71C126.886 174.725 126.898 174.743 126.906 174.763C126.915 174.783 126.919 174.804 126.919 174.826V175.65H129.36V174.826C129.36 174.804 129.364 174.783 129.373 174.763C129.381 174.743 129.393 174.725 129.408 174.71C129.423 174.695 129.441 174.683 129.461 174.675C129.48 174.667 129.502 174.663 129.523 174.663H133.426C133.448 174.663 133.469 174.667 133.489 174.675C133.508 174.683 133.526 174.695 133.541 174.71C133.557 174.725 133.569 174.743 133.577 174.763C133.585 174.783 133.589 174.804 133.589 174.826V175.65H136.028V174.826C136.028 174.804 136.032 174.783 136.04 174.763C136.048 174.743 136.06 174.725 136.075 174.71C136.09 174.695 136.108 174.683 136.128 174.675C136.148 174.667 136.169 174.663 136.19 174.663H166.766C166.788 174.663 166.809 174.667 166.829 174.675C166.848 174.683 166.866 174.695 166.881 174.71C166.896 174.725 166.908 174.743 166.917 174.763C166.925 174.783 166.929 174.804 166.929 174.826V175.65H169.37V174.826C169.37 174.804 169.375 174.783 169.383 174.763C169.391 174.743 169.403 174.725 169.418 174.71C169.433 174.695 169.451 174.683 169.471 174.675C169.491 174.667 169.512 174.663 169.533 174.663H173.436C173.48 174.663 173.521 174.68 173.551 174.711C173.582 174.741 173.599 174.783 173.599 174.826V175.65H176.038V174.826C176.038 174.804 176.042 174.783 176.05 174.763C176.058 174.743 176.07 174.725 176.085 174.71C176.1 174.695 176.118 174.683 176.138 174.675C176.158 174.667 176.179 174.663 176.201 174.663H180.104C180.125 174.663 180.146 174.667 180.166 174.675C180.186 174.683 180.204 174.695 180.219 174.71C180.234 174.725 180.246 174.743 180.254 174.763C180.262 174.783 180.267 174.804 180.267 174.826V175.65H182.705V174.826C182.705 174.804 182.709 174.783 182.717 174.763C182.726 174.743 182.738 174.725 182.753 174.71C182.768 174.695 182.786 174.683 182.806 174.675C182.825 174.667 182.847 174.663 182.868 174.663H186.771C186.793 174.663 186.814 174.667 186.834 174.675C186.853 174.683 186.871 174.695 186.886 174.71C186.902 174.725 186.914 174.743 186.922 174.763C186.93 174.783 186.934 174.804 186.934 174.826V175.65H189.375V174.826C189.375 174.804 189.38 174.783 189.388 174.763C189.396 174.743 189.408 174.725 189.423 174.71C189.438 174.695 189.456 174.683 189.476 174.675C189.496 174.667 189.517 174.663 189.538 174.663H193.442C193.484 174.663 193.525 174.681 193.555 174.711C193.585 174.742 193.602 174.783 193.601 174.826V175.65H196.043V174.826C196.043 174.804 196.047 174.783 196.055 174.763C196.063 174.743 196.075 174.725 196.09 174.71C196.106 174.695 196.124 174.683 196.143 174.675C196.163 174.667 196.184 174.663 196.206 174.663H200.109C200.13 174.663 200.152 174.667 200.171 174.675C200.191 174.683 200.209 174.695 200.224 174.71C200.239 174.725 200.251 174.743 200.259 174.763C200.268 174.783 200.272 174.804 200.272 174.826V175.65H202.71V174.826C202.71 174.804 202.714 174.783 202.723 174.763C202.731 174.743 202.743 174.725 202.758 174.71C202.773 174.695 202.791 174.683 202.811 174.675C202.83 174.667 202.852 174.663 202.873 174.663H206.776C206.798 174.663 206.819 174.667 206.839 174.675C206.858 174.683 206.876 174.695 206.892 174.71C206.907 174.725 206.919 174.743 206.927 174.763C206.935 174.783 206.939 174.804 206.939 174.826V175.65H218.324C218.836 175.65 219.344 175.751 219.818 175.947C220.291 176.144 220.722 176.432 221.084 176.795C221.447 177.159 221.734 177.59 221.93 178.065C222.126 178.539 222.227 179.048 222.227 179.562Z" fill="#3F3D56"/>
<path d="M259.967 182.747H46.9241V183.33H259.967V182.747Z" fill="#3F3D56"/>
<path d="M211.776 105.104H163.4V104.104H141.465V105.104H92.8898C92.0219 105.104 91.1896 105.449 90.5759 106.064C89.9623 106.679 89.6175 107.513 89.6175 108.383V174.767C89.6175 175.636 89.9623 176.47 90.5759 177.085C91.1896 177.7 92.0219 178.046 92.8898 178.046H211.776C212.644 178.046 213.476 177.7 214.09 177.085C214.704 176.47 215.048 175.636 215.048 174.767V108.383C215.048 107.952 214.964 107.526 214.799 107.128C214.635 106.73 214.394 106.369 214.09 106.064C213.786 105.76 213.425 105.518 213.028 105.353C212.631 105.189 212.206 105.104 211.776 105.104Z" fill="#3F3D56"/>
<path d="M152.428 135.562C156.441 135.562 159.694 132.301 159.694 128.28C159.694 124.258 156.441 120.998 152.428 120.998C148.415 120.998 145.162 124.258 145.162 128.28C145.162 132.301 148.415 135.562 152.428 135.562Z" stroke="#D0CDE1" stroke-width="2" stroke-miterlimit="10"/>
<path d="M150.103 138.183C154.116 138.183 157.369 134.923 157.369 130.901C157.369 126.88 154.116 123.62 150.103 123.62C146.09 123.62 142.837 126.88 142.837 130.901C142.837 134.923 146.09 138.183 150.103 138.183Z" fill="#D0CDE1"/>
<path d="M62.4945 193.272H7.56261V193.931H62.4945V193.272Z" fill="#3F3D56"/>
<path d="M302.276 193.272H247.345V193.931H302.276V193.272Z" fill="#3F3D56"/>
<path d="M39.5681 172.058C33.7811 181.526 35.7721 193.303 35.7721 193.303C35.7721 193.303 47.1458 189.73 52.9328 180.262C58.7199 170.793 56.7288 159.016 56.7288 159.016C56.7288 159.016 45.3552 162.59 39.5681 172.058Z" fill="#3F3D56"/>
<path d="M35.536 193.381L35.2069 193.329C35.0879 193.31 23.2446 191.344 16.1516 182.839C9.05864 174.334 9.22933 162.305 9.23166 162.184L9.23872 161.851L9.56775 161.903C9.68674 161.922 21.5301 163.888 28.6231 172.393C35.716 180.898 35.5453 192.927 35.543 193.048L35.536 193.381Z" fill="#A4D0EB"/>
<path d="M36.0032 193.681L35.6853 193.581C35.5704 193.545 24.1407 189.865 18.3636 180.414C12.5865 170.962 14.5089 159.086 14.5287 158.967L14.5844 158.638L14.9023 158.738C15.0172 158.774 26.4469 162.453 32.224 171.905C38.0011 181.357 36.0787 193.233 36.0589 193.352L36.0032 193.681ZM15.0533 159.405C14.7902 161.398 13.7414 171.736 18.8592 180.109C23.9773 188.482 33.6435 192.243 35.5343 192.914C35.7975 190.921 36.8462 180.583 31.7284 172.21C26.6104 163.836 16.9441 160.076 15.0533 159.405H15.0533Z" fill="#3F3D56"/>
<path d="M36.1332 162.623C39.6646 162.623 42.5274 159.755 42.5274 156.216C42.5274 152.677 39.6646 149.808 36.1332 149.808C32.6018 149.808 29.739 152.677 29.739 156.216C29.739 159.755 32.6018 162.623 36.1332 162.623Z" fill="#3F3D56"/>
<path d="M116.197 75.2217L79.5152 38.1714H62.198V37.5889H79.7579L79.8433 37.6754L116.61 74.8122L116.197 75.2217Z" fill="#3F3D56"/>
<path d="M202.35 74.0562L239.031 37.0059H256.349V36.4233H238.789L238.703 36.5098L201.937 73.6466L202.35 74.0562Z" fill="#3F3D56"/>
<path d="M42.4342 19.9053H4.57764e-05V28.3163H42.4342V19.9053Z" fill="#D0CDE1"/>
<path d="M42.4342 32.812H4.57764e-05V41.223H42.4342V32.812Z" fill="#D0CDE1"/>
<path d="M42.4342 45.7183H4.57764e-05V54.1293H42.4342V45.7183Z" fill="#D0CDE1"/>
<path opacity="0.15" d="M17.5546 19.9053H6.10352e-05V28.3163H17.5546V19.9053Z" fill="black"/>
<path opacity="0.15" d="M5.68314 32.812H0V41.223H5.68314V32.812Z" fill="black"/>
<path opacity="0.15" d="M28.2895 45.7183H4.57764e-05V54.1293H28.2895V45.7183Z" fill="black"/>
<path d="M320 21.7949H277.501V25.5901H320V21.7949Z" fill="#D0CDE1"/>
<path d="M269.996 21.3032H261.58V29.737H269.996V21.3032Z" fill="#FF0000" fill-opacity="0.35"/>
<path d="M269.996 33.9541H261.58V42.3879H269.996V33.9541Z" fill="#FF0000" fill-opacity="0.35"/>
<path d="M269.996 46.605H261.58V55.0387H269.996V46.605Z" fill="#FF0000" fill-opacity="0.35"/>
<path d="M272.321 27.99H263.324V18.9736H272.321V27.99ZM263.906 27.4075H271.74V19.5562H263.906V27.4075Z" fill="#3F3D56"/>
<path d="M320 34.4453H277.501V38.2405H320V34.4453Z" fill="#D0CDE1"/>
<path d="M272.321 40.6403H263.324V31.624H272.321V40.6403ZM263.906 40.0577H271.74V32.2066H263.906V40.0577Z" fill="#3F3D56"/>
<path d="M320 47.0962H277.501V50.8914H320V47.0962Z" fill="#D0CDE1"/>
<path d="M272.321 53.2907H263.324V44.2744H272.321V53.2907ZM263.906 52.7081H271.74V44.857H263.906V52.7081Z" fill="#3F3D56"/>
<path d="M54.9319 28.8504C57.5002 28.8504 59.5822 26.7639 59.5822 24.1901C59.5822 21.6163 57.5002 19.5298 54.9319 19.5298C52.3636 19.5298 50.2816 21.6163 50.2816 24.1901C50.2816 26.7639 52.3636 28.8504 54.9319 28.8504Z" fill="#A4D0EB"/>
<path d="M54.9319 42.8313C57.5002 42.8313 59.5822 40.7449 59.5822 38.171C59.5822 35.5972 57.5002 33.5107 54.9319 33.5107C52.3636 33.5107 50.2816 35.5972 50.2816 38.171C50.2816 40.7449 52.3636 42.8313 54.9319 42.8313Z" fill="#A4D0EB"/>
<path d="M54.9319 55.3563C57.5002 55.3563 59.5822 53.2698 59.5822 50.6959C59.5822 48.1221 57.5002 46.0356 54.9319 46.0356C52.3636 46.0356 50.2816 48.1221 50.2816 50.6959C50.2816 53.2698 52.3636 55.3563 54.9319 55.3563Z" fill="#A4D0EB"/>
<path d="M52.6067 27.9769C51.6295 27.9769 50.6742 27.6865 49.8616 27.1424C49.0491 26.5983 48.4158 25.825 48.0418 24.9202C47.6679 24.0154 47.57 23.0198 47.7607 22.0593C47.9513 21.0988 48.4219 20.2165 49.1129 19.524C49.8039 18.8315 50.6843 18.3599 51.6428 18.1689C52.6012 17.9778 53.5947 18.0759 54.4975 18.4507C55.4004 18.8254 56.172 19.4601 56.715 20.2744C57.2579 21.0886 57.5477 22.046 57.5477 23.0253C57.5462 24.3381 57.0252 25.5967 56.0989 26.525C55.1726 27.4533 53.9167 27.9754 52.6067 27.9769ZM52.6067 18.6563C51.7444 18.6563 50.9015 18.9125 50.1846 19.3926C49.4676 19.8727 48.9089 20.555 48.5789 21.3534C48.2489 22.1517 48.1626 23.0302 48.3308 23.8777C48.499 24.7252 48.9142 25.5037 49.5239 26.1147C50.1337 26.7257 50.9105 27.1418 51.7562 27.3104C52.6019 27.479 53.4784 27.3925 54.2751 27.0618C55.0717 26.7311 55.7526 26.1711 56.2316 25.4526C56.7107 24.7341 56.9664 23.8894 56.9664 23.0253C56.9651 21.867 56.5053 20.7564 55.688 19.9374C54.8707 19.1183 53.7625 18.6576 52.6067 18.6563Z" fill="#3F3D56"/>
<path d="M52.6067 41.9578C51.6295 41.9578 50.6742 41.6674 49.8616 41.1233C49.0491 40.5793 48.4158 39.8059 48.0418 38.9012C47.6679 37.9964 47.57 37.0008 47.7607 36.0403C47.9513 35.0797 48.4219 34.1975 49.1129 33.505C49.8039 32.8125 50.6843 32.3409 51.6428 32.1498C52.6012 31.9588 53.5947 32.0568 54.4975 32.4316C55.4004 32.8064 56.172 33.441 56.715 34.2553C57.2579 35.0696 57.5477 36.0269 57.5477 37.0063C57.5462 38.3191 57.0252 39.5777 56.0989 40.5059C55.1726 41.4342 53.9167 41.9564 52.6067 41.9578ZM52.6067 32.6372C51.7444 32.6372 50.9015 32.8935 50.1846 33.3735C49.4676 33.8536 48.9089 34.536 48.5789 35.3343C48.2489 36.1326 48.1626 37.0111 48.3308 37.8586C48.499 38.7061 48.9142 39.4846 49.5239 40.0956C50.1337 40.7067 50.9105 41.1228 51.7562 41.2914C52.6019 41.4599 53.4784 41.3734 54.2751 41.0427C55.0717 40.712 55.7526 40.1521 56.2316 39.4336C56.7107 38.7151 56.9664 37.8704 56.9664 37.0063C56.9651 35.8479 56.5053 34.7374 55.688 33.9183C54.8707 33.0993 53.7625 32.6385 52.6067 32.6372Z" fill="#3F3D56"/>
<path d="M52.6067 54.4823C51.6295 54.4823 50.6742 54.1918 49.8616 53.6478C49.0491 53.1037 48.4158 52.3303 48.0418 51.4256C47.6679 50.5208 47.57 49.5252 47.7607 48.5647C47.9513 47.6042 48.4219 46.7219 49.1129 46.0294C49.8039 45.3369 50.6843 44.8653 51.6428 44.6742C52.6012 44.4832 53.5947 44.5812 54.4975 44.956C55.4004 45.3308 56.172 45.9654 56.715 46.7797C57.2579 47.594 57.5477 48.5513 57.5477 49.5307C57.5462 50.8435 57.0252 52.1021 56.0989 53.0304C55.1726 53.9586 53.9167 54.4808 52.6067 54.4823ZM52.6067 45.1616C51.7444 45.1616 50.9015 45.4179 50.1846 45.898C49.4676 46.378 48.9089 47.0604 48.5789 47.8587C48.2489 48.6571 48.1626 49.5355 48.3308 50.383C48.499 51.2305 48.9142 52.009 49.5239 52.6201C50.1337 53.2311 50.9105 53.6472 51.7562 53.8158C52.6019 53.9844 53.4784 53.8978 54.2751 53.5671C55.0717 53.2365 55.7526 52.6765 56.2316 51.958C56.7107 51.2395 56.9664 50.3948 56.9664 49.5307C56.9651 48.3723 56.5053 47.2618 55.688 46.4428C54.8707 45.6237 53.7625 45.163 52.6067 45.1616Z" fill="#3F3D56"/>
<path d="M287.448 173.611H286.866V169.242C286.867 169.011 286.959 168.788 287.122 168.625C287.286 168.461 287.507 168.369 287.738 168.368H289.192C289.269 168.368 289.343 168.338 289.397 168.283C289.452 168.228 289.482 168.154 289.482 168.077V165.164C289.482 165.087 289.452 165.013 289.397 164.959C289.343 164.904 289.269 164.873 289.192 164.873H287.738C287.507 164.873 287.286 164.781 287.122 164.617C286.959 164.453 286.867 164.231 286.866 163.999V162.543C286.866 162.466 286.836 162.392 286.781 162.337C286.727 162.283 286.653 162.252 286.576 162.252H283.96C283.729 162.252 283.507 162.159 283.344 161.996C283.18 161.832 283.088 161.61 283.088 161.378V161.087C283.088 161.009 283.057 160.935 283.003 160.881C282.948 160.826 282.874 160.795 282.797 160.795H272.334C272.257 160.795 272.183 160.826 272.129 160.881C272.074 160.935 272.044 161.009 272.044 161.087V161.378C272.043 161.61 271.951 161.832 271.788 161.996C271.624 162.159 271.403 162.252 271.172 162.252H268.556C268.479 162.252 268.405 162.283 268.35 162.337C268.296 162.392 268.265 162.466 268.265 162.543V163.999C268.265 164.231 268.173 164.453 268.01 164.617C267.846 164.781 267.624 164.873 267.393 164.873H265.94C265.863 164.873 265.789 164.904 265.735 164.959C265.68 165.013 265.649 165.087 265.649 165.164V168.077C265.649 168.154 265.68 168.228 265.735 168.283C265.789 168.338 265.863 168.368 265.94 168.368H267.684C267.915 168.369 268.137 168.461 268.3 168.625C268.464 168.788 268.556 169.011 268.556 169.242V173.611H267.975V169.242C267.974 169.165 267.944 169.091 267.889 169.036C267.835 168.982 267.761 168.951 267.684 168.951H265.94C265.709 168.951 265.487 168.859 265.324 168.695C265.16 168.531 265.068 168.309 265.068 168.077V165.164C265.068 164.933 265.16 164.711 265.324 164.547C265.487 164.383 265.709 164.291 265.94 164.291H267.393C267.47 164.291 267.544 164.26 267.599 164.205C267.653 164.151 267.684 164.077 267.684 163.999V162.543C267.684 162.311 267.776 162.089 267.94 161.925C268.103 161.762 268.325 161.669 268.556 161.669H271.172C271.249 161.669 271.323 161.638 271.377 161.584C271.432 161.529 271.462 161.455 271.462 161.378V161.087C271.463 160.855 271.554 160.633 271.718 160.469C271.881 160.305 272.103 160.213 272.334 160.213H282.797C283.029 160.213 283.25 160.305 283.414 160.469C283.577 160.633 283.669 160.855 283.669 161.087V161.378C283.669 161.455 283.7 161.529 283.755 161.584C283.809 161.638 283.883 161.669 283.96 161.669H286.576C286.807 161.669 287.029 161.762 287.192 161.925C287.356 162.089 287.447 162.311 287.448 162.543V163.999C287.448 164.077 287.478 164.151 287.533 164.205C287.587 164.26 287.661 164.291 287.738 164.291H289.192C289.423 164.291 289.644 164.383 289.808 164.547C289.971 164.711 290.063 164.933 290.064 165.164V168.077C290.063 168.309 289.971 168.531 289.808 168.695C289.644 168.859 289.423 168.951 289.192 168.951H287.738C287.661 168.951 287.587 168.982 287.533 169.036C287.478 169.091 287.448 169.165 287.448 169.242V173.611Z" fill="#3F3D56"/>
<path d="M286.576 194H268.846C268.615 194 268.394 193.908 268.23 193.744C268.067 193.58 267.975 193.358 267.975 193.126V180.602H268.556V193.126C268.556 193.203 268.587 193.277 268.641 193.332C268.696 193.387 268.769 193.417 268.846 193.417H286.576C286.653 193.417 286.727 193.387 286.781 193.332C286.836 193.277 286.866 193.203 286.866 193.126V180.602H287.448V193.126C287.448 193.358 287.356 193.58 287.192 193.744C287.029 193.908 286.807 194 286.576 194Z" fill="#3F3D56"/>
<path d="M290.354 175.65H268.556C268.235 175.65 267.975 175.911 267.975 176.232V182.058C267.975 182.38 268.235 182.64 268.556 182.64H290.354C290.675 182.64 290.936 182.38 290.936 182.058V176.232C290.936 175.911 290.675 175.65 290.354 175.65Z" fill="#A4D0EB"/>
<path d="M288.465 180.893H266.667C266.436 180.893 266.214 180.8 266.05 180.637C265.887 180.473 265.795 180.251 265.795 180.019V174.194C265.795 173.962 265.887 173.74 266.05 173.576C266.214 173.412 266.436 173.32 266.667 173.32H288.465C288.696 173.32 288.918 173.412 289.081 173.576C289.245 173.74 289.337 173.962 289.337 174.194V180.019C289.337 180.251 289.245 180.473 289.081 180.637C288.918 180.8 288.696 180.893 288.465 180.893ZM266.667 173.902C266.59 173.902 266.516 173.933 266.461 173.988C266.407 174.042 266.376 174.116 266.376 174.194V180.019C266.376 180.096 266.407 180.17 266.461 180.225C266.516 180.28 266.59 180.31 266.667 180.31H288.465C288.542 180.31 288.616 180.28 288.671 180.225C288.725 180.17 288.756 180.096 288.756 180.019V174.194C288.756 174.116 288.725 174.042 288.671 173.988C288.616 173.933 288.542 173.902 288.465 173.902H266.667Z" fill="#3F3D56"/>
<path d="M276.985 158.174C276.212 152.958 276.008 147.673 276.376 142.413L276.985 133.707C273.63 140.396 274.388 149.2 276.985 158.174V158.174Z" fill="#D0CDE1"/>
<path d="M279.6 159.63C279.228 156.518 279.13 153.379 279.307 150.249L279.6 145.067C277.986 149.049 278.351 154.289 279.6 159.63Z" fill="#D0CDE1"/>
</svg>
